# xmcd
#
# Track frame offsets: 
#        150
#        13510
#        27000
#        39047
#        52720
#        65547
#        79450
#        100292
#        114607
#        124937
#        136647
#        147267
#        159897
#        174040
#        189537
#        217675
#        238212
#        252785
#        260335
#        275972
#        293770
#        305707
#        323272
#
# Disc length: 4486 seconds
#
# Revision: 3
# Processed by: cddbd v1.5.1PL0 Copyright (c) Steve Scherf et al.
# Submitted via: ExactAudioCopy v0.95a5
#
DISCID=32118417
DTITLE=Tony Bennett - 40 Years: The Artistry Of Tony Bennett [CD1]
DYEAR=1991
DGENRE=Pop Vocal
TTITLE0=The Boulevard Of Broken Dreams
TTITLE1=Because Of You
TTITLE2=Cold, Cold Heart
TTITLE3=Blue Velvet
TTITLE4=Rags To Riches
TTITLE5=Stranger In Paradise
TTITLE6=While The Music Plays On
TTITLE7=May I Never Love You Again
TTITLE8=Sing You Sinners
TTITLE9=Just In Time
TTITLE10=Lazy Afternoon
TTITLE11=Ca, C'est L'Amour
TTITLE12=I Get A Kick Out Of You
TTITLE13=It Amazes Me
TTITLE14=Penthouse Serenade (When We're Alone)
TTITLE15=Lost In The Stars
TTITLE16=Lullaby Of Broadway
TTITLE17=Firefly
TTITLE18=A Sleepin' Bee
TTITLE19=The Man That Got Away
TTITLE20=Skylark
TTITLE21=September Song
TTITLE22=Till
EXTD=YEAR: 1991
EXTT0=
EXTT1=
EXTT2=
EXTT3=
EXTT4=
EXTT5=
EXTT6=
EXTT7=
EXTT8=
EXTT9=
EXTT10=
EXTT11=
EXTT12=
EXTT13=
EXTT14=
EXTT15=
EXTT16=
EXTT17=
EXTT18=
EXTT19=
EXTT20=
EXTT21=
EXTT22=
PLAYORDER=
